<svg width="220" height="48" viewBox="0 0 220 48" fill="none" xmlns="http://www.w3.org/2000/svg">
<rect x="0.5" y="0.5" width="219" height="47" rx="23.5" fill="#0F0F0F" stroke="#0F0F0F"/>
<path d="M98.4952 22.44V18.84H105.135V17.56H97.0552V29H105.327V27.72H98.4952V23.72H104.367V22.44H98.4952ZM112.486 17.56V21.896H112.454C111.974 21.192 111.206 20.616 109.894 20.616C107.846 20.616 106.214 22.232 106.214 24.92C106.214 27.608 107.846 29.224 109.894 29.224C111.206 29.224 111.974 28.616 112.454 27.992H112.486V29H113.766V17.56H112.486ZM110.022 28.104C108.342 28.104 107.494 26.52 107.494 24.92C107.494 23.32 108.342 21.736 110.022 21.736C111.542 21.736 112.486 23 112.486 24.92C112.486 26.84 111.542 28.104 110.022 28.104ZM116.261 19.256C116.629 19.256 117.061 18.984 117.061 18.488C117.061 17.992 116.629 17.72 116.261 17.72C115.909 17.72 115.461 17.992 115.461 18.488C115.461 18.984 115.909 19.256 116.261 19.256ZM115.621 20.84V29H116.901V20.84H115.621ZM122.469 21.96V20.84H120.869V18.12H119.589V20.84H118.389V21.96H119.589V27C119.589 28.664 120.421 29.096 121.509 29.096C121.845 29.096 122.181 29.064 122.469 29V27.88C121.381 27.96 120.869 27.8 120.869 26.872V21.96H122.469Z" fill="#FAFAFA"/>
</svg>
