<svg width="220" height="48" viewBox="0 0 220 48" fill="none" xmlns="http://www.w3.org/2000/svg">
<rect x="0.5" y="0.5" width="219" height="47" rx="23.5" fill="#0F0F0F" stroke="#0F0F0F"/>
<path d="M95.246 29.224C98.606 29.224 100.846 26.712 100.846 23.272C100.846 19.832 98.606 17.336 95.246 17.336C91.886 17.336 89.646 19.832 89.646 23.272C89.646 26.712 91.886 29.224 95.246 29.224ZM95.246 27.944C92.366 27.944 91.086 25.736 91.086 23.272C91.086 20.808 92.366 18.616 95.246 18.616C98.126 18.616 99.406 20.808 99.406 23.272C99.406 25.736 98.126 27.944 95.246 27.944ZM106.034 20.616C104.866 20.616 104.21 21.384 103.778 22.456H103.746V20.84H102.466V29H103.746V24.648C103.746 22.904 104.978 21.656 106.754 21.944H106.786V20.664C106.562 20.632 106.338 20.616 106.034 20.616ZM113.542 17.56V21.896H113.51C113.03 21.192 112.262 20.616 110.95 20.616C108.902 20.616 107.27 22.232 107.27 24.92C107.27 27.608 108.902 29.224 110.95 29.224C112.262 29.224 113.03 28.616 113.51 27.992H113.542V29H114.822V17.56H113.542ZM111.078 28.104C109.398 28.104 108.55 26.52 108.55 24.92C108.55 23.32 109.398 21.736 111.078 21.736C112.598 21.736 113.542 23 113.542 24.92C113.542 26.84 112.598 28.104 111.078 28.104ZM120.146 28.104C118.37 28.104 117.49 26.728 117.49 25.256H123.938C123.938 22.36 122.69 20.616 120.13 20.616C117.746 20.616 116.21 22.2 116.21 24.92C116.21 27.48 117.714 29.224 120.194 29.224C122.226 29.224 123.394 28.008 123.81 26.488H122.53C122.386 27.048 121.778 28.104 120.146 28.104ZM120.13 21.736C121.666 21.736 122.658 22.824 122.658 24.136H117.49C117.49 22.824 118.594 21.736 120.13 21.736ZM128.869 20.616C127.701 20.616 127.045 21.384 126.613 22.456H126.581V20.84H125.301V29H126.581V24.648C126.581 22.904 127.813 21.656 129.589 21.944H129.621V20.664C129.397 20.632 129.173 20.616 128.869 20.616Z" fill="#FAFAFA"/>
</svg>
