<svg width="220" height="48" viewBox="0 0 220 48" fill="none" xmlns="http://www.w3.org/2000/svg">
<rect x="0.5" y="0.5" width="219" height="47" rx="23.5" fill="#0F0F0F" stroke="#0F0F0F"/>
<path d="M91.5077 22.328C89.8277 21.912 88.5957 21.704 88.5957 20.184C88.5957 19.24 89.4597 18.616 91.0757 18.616C92.8837 18.616 93.7477 19.416 93.9557 20.952H95.3957C95.2037 18.584 93.5077 17.336 91.0757 17.336C88.5477 17.336 87.1557 18.536 87.1557 20.344C87.1557 22.568 89.2037 23.16 90.9157 23.56C93.4757 24.152 94.3237 24.44 94.3237 26.008C94.3237 27.032 93.6197 27.944 91.6357 27.944C89.2357 27.944 88.2757 26.728 88.1157 25.16H86.6757C86.8357 27.784 88.9317 29.224 91.6357 29.224C94.5317 29.224 95.7637 27.672 95.7637 26.008C95.7637 23.4 94.0837 22.968 91.5077 22.328ZM98.1153 19.256C98.4833 19.256 98.9153 18.984 98.9153 18.488C98.9153 17.992 98.4833 17.72 98.1153 17.72C97.7633 17.72 97.3153 17.992 97.3153 18.488C97.3153 18.984 97.7633 19.256 98.1153 19.256ZM97.4753 20.84V29H98.7553V20.84H97.4753ZM106.579 20.84V21.848H106.547C106.067 21.224 105.299 20.616 103.955 20.616C101.939 20.616 100.307 21.912 100.307 24.6C100.307 27.288 101.939 28.584 103.955 28.584C105.299 28.584 106.067 28.008 106.547 27.304H106.579V28.536C106.579 30.056 105.699 30.712 104.179 30.712C102.659 30.712 101.987 30.088 101.827 29.256H100.547C100.675 30.648 102.003 31.832 104.243 31.832C106.483 31.832 107.859 30.728 107.859 28.552V20.84H106.579ZM104.115 27.464C102.435 27.464 101.587 26.2 101.587 24.6C101.587 23 102.435 21.736 104.115 21.736C105.635 21.736 106.579 22.68 106.579 24.6C106.579 26.52 105.635 27.464 104.115 27.464ZM113.71 20.616C112.318 20.616 111.454 21.24 111.022 21.816H110.99V20.84H109.71V29H110.99V23.912C110.99 22.648 111.95 21.736 113.39 21.736C114.67 21.736 115.166 22.568 115.166 23.624V29H116.446V23.304C116.446 21.432 115.198 20.616 113.71 20.616ZM122.359 19.256C122.727 19.256 123.159 18.984 123.159 18.488C123.159 17.992 122.727 17.72 122.359 17.72C122.007 17.72 121.559 17.992 121.559 18.488C121.559 18.984 122.007 19.256 122.359 19.256ZM121.719 20.84V29H122.999V20.84H121.719ZM129.014 20.616C127.622 20.616 126.758 21.24 126.326 21.816H126.294V20.84H125.014V29H126.294V23.912C126.294 22.648 127.254 21.736 128.694 21.736C129.974 21.736 130.47 22.568 130.47 23.624V29H131.75V23.304C131.75 21.432 130.502 20.616 129.014 20.616Z" fill="#FAFAFA"/>
</svg>
