<svg width="220" height="48" viewBox="0 0 220 48" fill="none" xmlns="http://www.w3.org/2000/svg">
<rect x="0.5" y="0.5" width="219" height="47" rx="23.5" stroke="#0F0F0F"/>
<path d="M86.2877 22.328C84.6077 21.912 83.3757 21.704 83.3757 20.184C83.3757 19.24 84.2397 18.616 85.8557 18.616C87.6637 18.616 88.5277 19.416 88.7357 20.952H90.1757C89.9837 18.584 88.2877 17.336 85.8557 17.336C83.3277 17.336 81.9357 18.536 81.9357 20.344C81.9357 22.568 83.9837 23.16 85.6957 23.56C88.2557 24.152 89.1037 24.44 89.1037 26.008C89.1037 27.032 88.3997 27.944 86.4157 27.944C84.0157 27.944 83.0557 26.728 82.8957 25.16H81.4557C81.6157 27.784 83.7117 29.224 86.4157 29.224C89.3117 29.224 90.5437 27.672 90.5437 26.008C90.5437 23.4 88.8637 22.968 86.2877 22.328ZM92.8953 19.256C93.2633 19.256 93.6953 18.984 93.6953 18.488C93.6953 17.992 93.2633 17.72 92.8953 17.72C92.5433 17.72 92.0953 17.992 92.0953 18.488C92.0953 18.984 92.5433 19.256 92.8953 19.256ZM92.2553 20.84V29H93.5353V20.84H92.2553ZM101.359 20.84V21.848H101.327C100.847 21.224 100.079 20.616 98.7347 20.616C96.7187 20.616 95.0867 21.912 95.0867 24.6C95.0867 27.288 96.7187 28.584 98.7347 28.584C100.079 28.584 100.847 28.008 101.327 27.304H101.359V28.536C101.359 30.056 100.479 30.712 98.9587 30.712C97.4387 30.712 96.7667 30.088 96.6067 29.256H95.3267C95.4547 30.648 96.7827 31.832 99.0227 31.832C101.263 31.832 102.639 30.728 102.639 28.552V20.84H101.359ZM98.8947 27.464C97.2147 27.464 96.3667 26.2 96.3667 24.6C96.3667 23 97.2147 21.736 98.8947 21.736C100.415 21.736 101.359 22.68 101.359 24.6C101.359 26.52 100.415 27.464 98.8947 27.464ZM108.49 20.616C107.098 20.616 106.234 21.24 105.802 21.816H105.77V20.84H104.49V29H105.77V23.912C105.77 22.648 106.73 21.736 108.17 21.736C109.45 21.736 109.946 22.568 109.946 23.624V29H111.226V23.304C111.226 21.432 109.978 20.616 108.49 20.616ZM119.875 29.224C117.379 29.224 115.875 27.464 115.875 24.92C115.875 22.376 117.379 20.616 119.875 20.616C122.355 20.616 123.859 22.376 123.859 24.92C123.859 27.464 122.355 29.224 119.875 29.224ZM119.875 28.104C121.699 28.104 122.579 26.664 122.579 24.92C122.579 23.176 121.699 21.736 119.875 21.736C118.035 21.736 117.155 23.176 117.155 24.92C117.155 26.664 118.035 28.104 119.875 28.104ZM130.655 20.84V25.928C130.655 27.192 129.695 28.104 128.255 28.104C126.975 28.104 126.479 27.272 126.479 26.216V20.84H125.199V26.536C125.199 28.408 126.447 29.224 127.935 29.224C129.327 29.224 130.191 28.6 130.623 28.024H130.655V29H131.935V20.84H130.655ZM137.348 21.96V20.84H135.748V18.12H134.468V20.84H133.268V21.96H134.468V27C134.468 28.664 135.3 29.096 136.388 29.096C136.724 29.096 137.06 29.064 137.348 29V27.88C136.26 27.96 135.748 27.8 135.748 26.872V21.96H137.348Z" fill="#0F0F0F"/>
</svg>
